<?xml version="1.0" encoding="UTF-8"?>
<svg version="1.1" xmlns="http://www.w3.org/2000/svg" width="32" height="32">
<path d="M0 0 C4.8846525 2.26787438 7.73212562 5.1153475 10 10 C10.75381535 15.5997712 10.77303575 20.33499991 8.375 25.5 C3.80134327 30.3143755 0.6912538 32.25156236 -6 32.5 C-12.6912538 32.25156236 -15.80134327 30.3143755 -20.375 25.5 C-22.77303575 20.33499991 -22.75381535 15.5997712 -22 10 C-17.52212837 0.3553534 -9.85292056 -1.32635469 0 0 Z " fill="#51236C" transform="translate(22,0)"/>
<path d="M0 0 C6.73539519 4.84536082 6.73539519 4.84536082 7.6875 9 C6.51407672 14.12039249 4.136664 17.0610167 0.125 20.375 C-3.45744206 22.23786987 -5.04830899 22.90559586 -9 22 C-11.3052852 19.87892708 -13.17361668 17.53880234 -15 15 C-14.360625 14.87625 -13.72125 14.7525 -13.0625 14.625 C-12.381875 14.41875 -11.70125 14.2125 -11 14 C-10.67 13.34 -10.34 12.68 -10 12 C-9.34 12 -8.68 12 -8 12 C-8 12.99 -8 13.98 -8 15 C-7.21625 14.67 -6.4325 14.34 -5.625 14 C-3 13 -3 13 -1 13 C-1 11.68 -1 10.36 -1 9 C-0.67 8.34 -0.34 7.68 0 7 C-1.65 7.66 -3.3 8.32 -5 9 C-5.33 8.01 -5.66 7.02 -6 6 C-4.35 5.67 -2.7 5.34 -1 5 C-0.67 3.35 -0.34 1.7 0 0 Z " fill="#3F1C55" transform="translate(25,10)"/>
<path d="M0 0 C1.2065625 0.0309375 1.2065625 0.0309375 2.4375 0.0625 C3.5625 2.375 3.5625 2.375 4.4375 5.0625 C3.4475 6.5475 3.4475 6.5475 2.4375 8.0625 C-0.0625 8.375 -0.0625 8.375 -2.5625 8.0625 C-3.2225 7.4025 -3.8825 6.7425 -4.5625 6.0625 C-3.83457637 0.09352625 -3.83457637 0.09352625 0 0 Z " fill="#A193AB" transform="translate(11.5625,16.9375)"/>
<path d="M0 0 C2.625 0.375 2.625 0.375 5 1 C6.125 5.75 6.125 5.75 5 8 C3.00045254 8.04254356 0.99958364 8.04080783 -1 8 C-2 7 -2 7 -2.1875 4.5625 C-2 2 -2 2 0 0 Z " fill="#A598AE" transform="translate(19,7)"/>
<path d="M0 0 C0.86625 0.2784375 0.86625 0.2784375 1.75 0.5625 C4.20692525 1.04023546 5.64397534 0.75729364 8 0 C7.835 0.763125 7.67 1.52625 7.5 2.3125 C6.90854604 5.03596236 6.90854604 5.03596236 7 8 C6.401875 7.814375 5.80375 7.62875 5.1875 7.4375 C2.83591238 6.77906313 2.83591238 6.77906313 0 8 C0.185625 7.236875 0.37125 6.47375 0.5625 5.6875 C1.22819173 2.91032625 1.22819173 2.91032625 0 0 Z " fill="#DCD8DF" transform="translate(17,17)"/>
<path d="M0 0 C0.598125 0.185625 1.19625 0.37125 1.8125 0.5625 C4.16408762 1.22093687 4.16408762 1.22093687 7 0 C7 0.99 7 1.98 7 3 C6.34 3 5.68 3 5 3 C5.66 4.65 6.32 6.3 7 8 C6.236875 7.814375 5.47375 7.62875 4.6875 7.4375 C1.91032625 6.77180827 1.91032625 6.77180827 -1 8 C-0.835 7.236875 -0.67 6.47375 -0.5 5.6875 C0.09145396 2.96403764 0.09145396 2.96403764 0 0 Z " fill="#DAD8DD" transform="translate(8,7)"/>
<path d="M0 0 C1.98 0.66 3.96 1.32 6 2 C3 4 3 4 1 4 C1.66 5.65 2.32 7.3 3 9 C2.01 9 1.02 9 0 9 C-1.03789581 7.35666496 -2.03567924 5.68756133 -3 4 C-3.99 3.34 -4.98 2.68 -6 2 C-3 1 -3 1 0 2 C0 1.34 0 0.68 0 0 Z " fill="#49275C" transform="translate(16,13)"/>
<path d="M0 0 C0.66 0 1.32 0 2 0 C1.773125 0.763125 1.54625 1.52625 1.3125 2.3125 C1.209375 3.199375 1.10625 4.08625 1 5 C2.33378575 6.8354799 2.33378575 6.8354799 4 8 C2.35 7.67 0.7 7.34 -1 7 C-1.625 4.625 -1.625 4.625 -2 2 C-1.34 1.34 -0.68 0.68 0 0 Z " fill="#EBE8ED" transform="translate(9,17)"/>
<path d="M0 0 C1.32 0 2.64 0 4 0 C3.67 0.99 3.34 1.98 3 3 C2.34 3 1.68 3 1 3 C1 4.32 1 5.64 1 7 C0.01 7 -0.98 7 -2 7 C-2.125 4.625 -2.125 4.625 -2 2 C-1.34 1.34 -0.68 0.68 0 0 Z " fill="#EAE7EC" transform="translate(19,7)"/>
<path d="M0 0 C1.485 0.99 1.485 0.99 3 2 C2.67 3.65 2.34 5.3 2 7 C1.01 7.33 0.02 7.66 -1 8 C-0.835 7.236875 -0.67 6.47375 -0.5 5.6875 C0.09145396 2.96403764 0.09145396 2.96403764 0 0 Z " fill="#E4DEE7" transform="translate(8,7)"/>
</svg>
